<svg width="400" height="151" xmlns="http://www.w3.org/2000/svg"><path d="M299.68 41.711h25.388v12.23c0 3.939-.416 7.256-.416 7.256h.416c4.577-8.913 16.23-21.974 37.664-21.974 23.513 0 36.83 12.232 36.83 40.217v67.995h-26.217V84.83c0-12.851-3.33-21.558-16.856-21.558-14.15 0-24.554 8.913-28.508 21.558-1.456 4.355-1.871 9.122-1.871 14.096v48.51h-26.43V41.711zM119.385.251h26.22v110.284c0 11.61 3.953 14.513 10.82 14.513 2.082 0 3.955-.208 3.955-.208v23.01s-3.956.623-8.324.623c-14.568 0-32.671-3.732-32.671-33.999V.25zM242.48 81.098h3.535v-1.452c0-13.89-8.737-18.657-20.391-18.657-15.19 0-29.132 10.157-29.132 10.157l-9.99-18.863s16.439-13.061 41.618-13.061c27.883 0 44.117 15.34 44.117 42.083v66.13h-24.349v-8.707c0-4.146.417-7.462.417-7.462h-.417c.21 0-8.115 18.656-32.252 18.656-18.937 0-36-11.816-36-32.96 0-33.584 45.571-35.864 62.844-35.864zm-178.9.243h3.536V79.89c0-13.889-8.738-18.656-20.391-18.656-15.19 0-29.132 10.157-29.132 10.157l-9.99-18.864s16.439-13.06 41.617-13.06c27.884 0 44.117 15.34 44.117 42.083v66.13H68.99v-8.707c0-4.146.417-7.463.417-7.463h-.417c.21 0-8.115 18.657-32.252 18.657-18.937 0-36-11.816-36-32.961 0-33.583 45.57-35.863 62.844-35.863zm3.804 20.28c0 12.852-9.988 27.779-23.93 27.779-10.82 0-16.022-6.634-16.022-13.683 0-14.718 21.85-16.584 35.374-16.584h4.578v2.488zm154.91 27.779c13.942 0 23.93-14.927 23.93-27.779v-2.488h-4.578c-13.526 0-35.376 1.866-35.376 16.584 0 7.049 5.203 13.683 16.025 13.683z" fill="#00CC7E" fill-rule="evenodd"/></svg>