<svg xmlns="http://www.w3.org/2000/svg" xmlns:xlink="http://www.w3.org/1999/xlink" viewBox="0 0 32 32"><defs><path id="a" d="M.05.001h7.273v6.276H.05z"/><path id="c" d="M0 .001h7.273v6.276H0z"/></defs><g fill="none" fill-rule="evenodd"><g transform="translate(24.606 7.406)"><mask id="b" fill="#fff"><use xlink:href="#a"/></mask><path fill="#22E39E" d="M3.65 0C1.39 0 .05 2.1.05 3.51c0 .8.41 1.75 1.3 2.04 1.3.43 1.52-.16 2.05-.06.53.1.57.79 1.84.79.74 0 2.08-.61 2.08-2.32A3.8 3.8 0 003.65 0" mask="url(#b)"/></g><g transform="translate(0 7.406)"><mask id="d" fill="#fff"><use xlink:href="#c"/></mask><path fill="#22E39E" d="M3.68 0A3.8 3.8 0 000 3.96a2.18 2.18 0 002.09 2.32c1.26 0 1.3-.7 1.83-.8.53-.09.76.5 2.05.07.89-.29 1.3-1.24 1.3-2.04 0-1.4-1.34-3.5-3.6-3.5" mask="url(#d)"/></g><path fill="#22E39E" d="M15.96 7.98s0-.02 0 0m0 0c-5.52 0-6.5 2.34-6.5 3.67 0 2.56 2.69 6.27 6.5 6.27 3.82 0 6.51-3.7 6.51-6.27 0-1.33-.99-3.67-6.5-3.67m0 0c0-.02 0 0 0 0m4.95 11.85c-1.06 0-2.47.88-4.96.88-2.48 0-3.9-.88-4.96-.88-.66 0-1.36.24-1.36 1.08 0 1.8 3.05 4.09 6.32 4.09 3.28 0 6.32-2.3 6.32-4.1 0-.83-.7-1.07-1.36-1.07"/></g></svg>