<svg xmlns="http://www.w3.org/2000/svg" viewBox="0 0 32 32"><defs><linearGradient id="a" x1="50%" x2="50%" y1="0%" y2="100%"><stop offset="0%" stop-color="#F4F6F8"/><stop offset="100%" stop-color="#D6DDE3"/></linearGradient><linearGradient id="b" x1="50%" x2="50%" y1="0%" y2="100%"><stop offset="0%" stop-color="#FFF"/><stop offset="100%" stop-color="#D6DDE3"/></linearGradient></defs><g fill="none" fill-rule="evenodd"><path fill="#00CC7E" d="M0 0h32v32H0z"/><path fill="url(#a)" d="M25.98 8.14c0-1.1-1.03-1.82-1.66-1.98a4.42 4.42 0 01-2.25-1.4c-.52-.73-.44 5.36 2.01 5.36 1.19 0 1.9-.87 1.9-1.98M0 8.14c0-1.1 1.03-1.82 1.66-1.98a4.42 4.42 0 002.25-1.4c.52-.73.44 5.36-2.01 5.36-1.2 0-1.9-.87-1.9-1.98" transform="translate(3 5)"/><path fill="url(#b)" d="M24.18 11.14a11.14 11.14 0 11-22.28 0 11.14 11.14 0 0122.28 0" transform="translate(3 5)"/><path fill="#0A3A52" d="M19.75 17.64a5.8 5.8 0 01-1.77-.38c-.62-.2-1.26-.4-1.94-.4-.64 0-1.2.17-1.8.37-.63.2-1.29.41-2.07.41a3.98 3.98 0 01-2.72-1.18.474.474 0 01.7-.64 3 3 0 002.02.88c.63 0 1.2-.18 1.79-.38.63-.2 1.3-.41 2.08-.41.83 0 1.58.24 2.24.45.53.17 1.03.34 1.47.34.95 0 1.63-.49 2.04-.9a.477.477 0 01.67.68 3.8 3.8 0 01-2.7 1.16m-9.8-8.69c.94 0 1.57.4 1.57 1.1 0 .72-.63 1.43-2.05 1.43-1.1 0-1.42-.79-1.42-1.1 0-.48.55-1.43 1.9-1.43M22.2 8.8c-.94 0-1.58.4-1.58 1.11 0 .71.64 1.42 2.06 1.42 1.1 0 1.42-.79 1.42-1.1 0-.48-.55-1.43-1.9-1.43m-6.16 3c.87 0 2.45.32 2.45.95 0 .64-1.1 1.5-2.45 1.5-1.34 0-2.45-.94-2.45-1.5 0-.55 1.1-.94 2.45-.94"/><path fill="#457283" d="M9.56 9.78c0 .24-.25.44-.55.44-.3 0-.56-.2-.56-.44s.25-.43.56-.43c.3 0 .55.2.55.43m12.49-.16c0 .24-.25.44-.56.44-.3 0-.55-.2-.55-.44s.25-.43.55-.43c.3 0 .56.2.56.43m-6.48 2.78c.06.23-.18.48-.53.56-.35.08-.67-.05-.73-.28-.05-.24.2-.49.54-.57.35-.07.67.05.72.29"/></g></svg>